<?xml version="1.0" encoding="utf-8"?>
<!-- Generator: Adobe Illustrator 19.0.0, SVG Export Plug-In . SVG Version: 6.00 Build 0)  -->
<svg version="1.1" id="Layer_1" xmlns="http://www.w3.org/2000/svg" xmlns:xlink="http://www.w3.org/1999/xlink" x="0px" y="0px"
	 viewBox="0 0 64 64" style="enable-background:new 0 0 64 64;" xml:space="preserve">
<g id="XMLID_1_">
	<path id="XMLID_50_" d="M58.5,40c-0.3-0.4-0.6-0.8-1-1.1l0.8-0.5c1.9-1.2,2.4-3.6,1.3-5.5l-1.1-1.7c-0.3-0.4-0.6-0.8-1-1.1l0.8-0.5
		c1.9-1.2,2.4-3.6,1.3-5.5l-1.1-1.7c-0.2-0.4-0.5-0.7-0.9-1l0.3-0.2c1.3-0.8,1.9-2.2,1.9-3.7c0-0.6-0.2-1.2-0.6-1.8L58.1,14
		c-0.8-1.3-2.2-2-3.7-1.9c-0.1,0-0.2,0-0.2,0l0-2.2c0-2.3-1.8-3.9-4.1-3.9H27.6c-1.1,0-2.4,0.2-3.1,1C23.7,7.8,23,8.6,23,9.7v6.8
		c0,0.2-1,0.4-1.7,0.8c-2.4,1.1-4.2,2.8-5.5,5c-0.8,1.2-1.3,2.5-1.6,4C14,26.1,13.8,26,13.6,26H5.2C3.5,26,2,27.6,2,29.2v25.3
		C2,56.1,3.5,57,5.2,57h8.4c1.5,0,2.7-1.1,2.9-2.5c1.3,0.3,2.4,0.5,3.5,0.5h0.1h0c1.3,0,2.4,0,3.4-0.5c0.1-0.1,0.3,0,0.4-0.1
		c0.4,0.7,1,1.5,1.8,2c0.6,0.3,1.2,0.6,2,0.6h22.4c2.3,0,3.9-2.1,3.9-4.3v-2.8l4.2-2.6c1.3-0.8,2-2.2,1.9-3.7c0-0.6-0.2-1.2-0.6-1.8
		L58.5,40z M5,29.2C5,29,5,29,5.2,29h8.4c0.2,0,0.4,0,0.4,0.2v25.3c0,0.2-0.2,0.5-0.4,0.5H5.2C5,55,5,54.7,5,54.5V29.2z M17,30
		L17,30v-0.6c0-4.3,2.1-7.9,5.9-9.7l0.3-0.2c0.7-0.3,1.3-0.5,1.9-0.6c1.2-0.2,2.1,0.1,2.7,0.8c0.6,0.9,0.6,2.1,0.3,2.6
		c-0.4,0.9-0.6,1.3-2.1,2.5c-2.2,1.7-3.2,4.1-2.7,6.6c0.3,1.8,1.2,3.1,1.3,3.2c2.2,3.1,2.7,6.7,1.6,10.9c-0.9,3.2-2.4,5.5-2.4,5.6
		l-0.1,0.2c-0.1,0.1-0.2,0.6-1,1c-1,0.5-2.6,0.8-5.6-0.1V30z M27.6,8H50c0.6,0,1.1,1,1.4,1H26.2C26.5,9,27,8,27.6,8z M52,12v1.4
		l-4.6,2.7c-1.3,0.8-2.1,2.2-2,3.7c0,0.6,0.2,1.2,0.6,1.8l1,1.7c0.2,0.4,0.5,0.7,0.9,1l-0.3,0.2c-1.3,0.8-2,2.2-1.9,3.7
		c0,0.6,0.2,1.2,0.6,1.8l1.1,1.7c0.3,0.4,0.6,0.8,1,1.1l-0.8,0.5c-1.3,0.8-1.9,2.2-1.9,3.7c0,0.6,0.2,1.2,0.6,1.8l1.1,1.7
		c0.3,0.4,0.6,0.8,1,1.1l-0.8,0.5c-1.3,0.8-1.9,2.2-1.9,3.7c0,0.6,0.2,1.2,0.6,1.8l1.1,1.9c0.3,0.4,0.6,0.3,1,1.3H27.1
		c0.5-2,1.2-2.8,1.6-4.5c0.6-2.2,0.8-4.4,0.6-6.4c-0.1-1.5-0.6-3-1.4-4.6l-1.1-2.3l-0.1-0.2c0,0-0.7-0.9-0.9-2.1
		c-0.3-1.6,0.3-2.9,1.7-4c1.8-1.4,2.3-2.2,2.9-3.4c0.7-1.3,0.7-3.6-0.5-5.4c-0.5-0.8-1.3-1.3-2.2-1.6c-0.5-0.2-0.7-0.3-1.7-0.3V12
		H52z M55.8,15.4l1.1,1.7c0.2,0.3,0.2,0.7,0.2,1c-0.1,0.3-0.3,0.6-0.6,0.8l-3.2,2c-0.1,0.1-0.2,0.1-0.3,0.2l-2,1.3
		c-0.3,0.1-0.6,0.2-0.9,0.1c-0.3-0.1-0.6-0.3-0.8-0.6l-1.1-1.7c-0.2-0.3-0.2-0.7-0.2-1c0.1-0.3,0.3-0.6,0.6-0.8L54,15
		c0.3-0.2,0.6-0.2,1-0.2C55.4,14.9,55.6,15.1,55.8,15.4z M55.1,23.2c0.1,0,0.2,0,0.3,0c0.3,0.1,0.6,0.3,0.8,0.6l1.1,1.7
		c0.4,0.6,0.2,1.4-0.4,1.8l-5.5,3.4c-0.3,0.2-0.6,0.2-1,0.2c-0.3-0.1-0.6-0.3-0.8-0.6l-1.1-1.7c-0.2-0.3-0.2-0.7-0.2-1
		c0.1-0.3,0.3-0.6,0.6-0.8l3.2-2c0.1-0.1,0.2-0.1,0.3-0.2l2.1-1.3C54.7,23.2,54.9,23.2,55.1,23.2z M51.4,39.6
		c-0.3,0.2-0.6,0.2-1,0.2c-0.3-0.1-0.6-0.3-0.8-0.6l-1.1-1.7c-0.2-0.3-0.2-0.7-0.2-1c0.1-0.3,0.3-0.6,0.6-0.8l5.5-3.4
		c0.3-0.2,0.6-0.2,1-0.2c0.3,0.1,0.6,0.3,0.8,0.6l1.1,1.7c0.4,0.6,0.2,1.4-0.4,1.8L51.4,39.6z M51.4,53c-0.2,1-0.7,1-1.4,1H27.6
		c-0.6,0-1.1,0-1.4-1H51.4z M51.4,48.4c-0.3,0.2-0.6,0.2-1,0.2c-0.3-0.1-0.6-0.3-0.8-0.6l-1.1-1.7c-0.2-0.3-0.2-0.7-0.2-1
		c0.1-0.3,0.3-0.6,0.6-0.8l5.5-3.4c0.2-0.1,0.5-0.2,0.7-0.2c0.1,0,0.2,0,0.3,0c0.3,0.1,0.6,0.3,0.8,0.6l1.1,1.7
		c0.2,0.3,0.2,0.7,0.2,1c-0.1,0.3-0.3,0.6-0.6,0.8L51.4,48.4z"/>
	<path id="XMLID_61_" d="M9.3,53.2c0.2,0,0.4,0,0.6-0.1h0c0.9-0.2,1.6-1,1.9-1.9c0.2-0.9,0-1.8-0.7-2.5c-0.6-0.6-1.6-0.9-2.5-0.7
		C7.8,48.3,7,49,6.8,50c-0.2,0.9,0,1.8,0.7,2.5C8,52.9,8.6,53.2,9.3,53.2z M8.4,50.6c0-0.5,0.4-0.9,0.9-0.9c0.5,0,0.9,0.4,0.9,0.9
		c0,0.5-0.4,0.9-0.9,0.9C8.8,51.5,8.4,51.1,8.4,50.6z"/>
</g>
</svg>
